<svg width="80" height="80" viewBox="0 0 80 80" fill="none" xmlns="http://www.w3.org/2000/svg">
<path d="M33.3332 6.6665H46.6665C48.4346 6.6665 50.1303 7.36888 51.3805 8.61913C52.6308 9.86937 53.3332 11.5651 53.3332 13.3332V19.9998H66.6665C68.4346 19.9998 70.1303 20.7022 71.3805 21.9525C72.6308 23.2027 73.3332 24.8984 73.3332 26.6665V63.3332C73.3332 65.1013 72.6308 66.797 71.3805 68.0472C70.1303 69.2975 68.4346 69.9998 66.6665 69.9998H13.3332C11.5651 69.9998 9.86937 69.2975 8.61913 68.0472C7.36888 66.797 6.6665 65.1013 6.6665 63.3332V26.6665C6.6665 22.9665 9.63317 19.9998 13.3332 19.9998H26.6665V13.3332C26.6665 9.63317 29.6332 6.6665 33.3332 6.6665ZM46.6665 19.9998V13.3332H33.3332V19.9998H46.6665Z" fill="white"/>
</svg>
